<?xml version="1.0" encoding="utf-8"?>
<!-- Generator: Adobe Illustrator 19.1.0, SVG Export Plug-In . SVG Version: 6.00 Build 0)  -->
<svg version="1.1" id="Layer_1" xmlns="http://www.w3.org/2000/svg" xmlns:xlink="http://www.w3.org/1999/xlink" x="0px" y="0px"
	 viewBox="-323.6 470.7 230 60.9" style="enable-background:new -323.6 470.7 230 60.9;" xml:space="preserve">
<style type="text/css">
	.st0{fill:#FFFFFF;}
</style>
<path class="st0" d="M-292.9,470.7c-16.8-0.1-30.5,13.4-30.7,30.2c-0.1,7.1,2.3,13.6,6.3,18.8c1.6-1.5,2.6-2.6,2.8-2.8
	c0.8-0.8,2.9-0.8,2.9-0.8s2.1-2.1,4.2-4.2c2.1-2.1-1.5-5.8-1.5-5.8l-5.1-5.2c19.8-19.5,34.3-13.5,34.3-13.5s5.8,14.6-14,34.1
	l-5.1-5.2c0,0-3.6-3.7-5.8-1.6c-2.1,2.1-4.2,4.2-4.2,4.2s0,2.1-0.8,2.9c-0.2,0.2-1.3,1.2-2.8,2.8c5.2,4.2,11.7,6.7,18.9,6.8
	c16.8,0.1,30.5-13.4,30.7-30.2C-262.6,484.6-276.1,470.9-292.9,470.7z"/>
<g>
	<path class="st0" d="M-243.8,511.4c1.6,0,2.7-0.2,3.3-0.5c0.7-0.3,1-0.9,1-1.8c0-0.7-0.4-1.3-1.3-1.8c-0.8-0.5-2.1-1.1-3.9-1.8
		c-1.3-0.5-2.6-1-3.6-1.6c-1.1-0.5-2-1.2-2.8-1.9c-0.8-0.7-1.4-1.6-1.8-2.7c-0.4-1-0.6-2.3-0.6-3.7c0-2.8,1.1-5.1,3.2-6.7
		c2.1-1.6,5-2.5,8.7-2.5c1.8,0,3.6,0.2,5.3,0.5c1.7,0.3,3,0.7,4,1.1l-1.5,6.7c-1-0.3-2.1-0.7-3.2-0.9c-1.2-0.3-2.5-0.4-3.9-0.4
		c-2.7,0-4,0.7-4,2.2c0,0.3,0.1,0.7,0.2,0.9c0.1,0.3,0.3,0.5,0.7,0.8c0.3,0.2,0.8,0.5,1.4,0.8c0.6,0.3,1.4,0.6,2.3,1
		c1.9,0.7,3.4,1.4,4.7,2.1c1.2,0.7,2.2,1.4,2.9,2.2c0.7,0.8,1.2,1.7,1.5,2.6c0.3,1,0.4,2.1,0.4,3.3c0,3-1.1,5.2-3.4,6.8
		c-2.2,1.5-5.4,2.3-9.5,2.3c-2.7,0-4.9-0.2-6.7-0.7c-1.8-0.5-3-0.8-3.7-1.1l1.4-7c1.5,0.6,2.9,1,4.5,1.4
		C-246.8,511.3-245.3,511.4-243.8,511.4"/>
	<path class="st0" d="M-198.8,487.3c-1.7,5.8-3.5,11.3-5.4,16.4c-1.9,5.1-3.9,10-6.2,14.8c-0.8,1.7-1.6,3.2-2.4,4.4
		c-0.8,1.2-1.7,2.2-2.6,3c-1,0.8-2,1.4-3.3,1.7c-1.2,0.4-2.6,0.5-4.2,0.5c-1.3,0-2.6-0.1-3.7-0.4c-1.1-0.2-2.1-0.5-2.8-0.8l1.5-6.8
		c0.9,0.3,1.7,0.5,2.4,0.6s1.4,0.2,2.2,0.2c1.5,0,2.7-0.4,3.5-1.2c0.8-0.8,1.5-2,2.1-3.4c-2-3.8-3.9-8.1-5.9-12.9
		c-2-4.8-3.8-10.1-5.5-16.1h9.1c0.4,1.5,0.8,3.1,1.4,4.9c0.5,1.7,1.1,3.5,1.6,5.3c0.6,1.8,1.2,3.5,1.8,5.2c0.6,1.7,1.2,3.2,1.7,4.6
		c0.5-1.4,1-2.9,1.6-4.6c0.5-1.7,1.1-3.4,1.6-5.2c0.5-1.8,1-3.5,1.5-5.3c0.5-1.7,0.9-3.4,1.3-4.9L-198.8,487.3L-198.8,487.3z"/>
	<path class="st0" d="M-186.8,511.4c1.6,0,2.7-0.2,3.3-0.5c0.7-0.3,1-0.9,1-1.8c0-0.7-0.4-1.3-1.3-1.8c-0.8-0.5-2.1-1.1-3.9-1.8
		c-1.3-0.5-2.6-1-3.6-1.6c-1.1-0.5-2-1.2-2.8-1.9c-0.8-0.7-1.4-1.6-1.8-2.7c-0.4-1-0.6-2.3-0.6-3.7c0-2.8,1.1-5.1,3.2-6.7
		c2.1-1.6,5-2.5,8.7-2.5c1.8,0,3.6,0.2,5.3,0.5c1.7,0.3,3,0.7,4,1.1l-1.5,6.7c-1-0.3-2.1-0.7-3.2-0.9c-1.2-0.3-2.5-0.4-3.9-0.4
		c-2.7,0-4,0.7-4,2.2c0,0.3,0.1,0.7,0.2,0.9c0.1,0.3,0.3,0.5,0.7,0.8c0.3,0.2,0.8,0.5,1.4,0.8c0.6,0.3,1.4,0.6,2.3,1
		c1.9,0.7,3.4,1.4,4.7,2.1s2.2,1.4,2.9,2.2c0.7,0.8,1.2,1.7,1.5,2.6c0.3,1,0.4,2.1,0.4,3.3c0,3-1.1,5.2-3.4,6.8
		c-2.2,1.5-5.4,2.3-9.5,2.3c-2.7,0-4.9-0.2-6.7-0.7c-1.8-0.5-3-0.8-3.7-1.1l1.4-7c1.5,0.6,2.9,1,4.5,1.4
		C-189.8,511.3-188.3,511.4-186.8,511.4"/>
	<path class="st0" d="M-142,516.6c-0.8,0.2-1.6,0.5-2.6,0.7c-1,0.2-2,0.4-3.1,0.5c-1.1,0.2-2.2,0.3-3.3,0.4
		c-1.1,0.1-2.2,0.1-3.2,0.1c-2.5,0-4.7-0.4-6.7-1.1c-2-0.7-3.6-1.8-4.9-3.1c-1.3-1.4-2.4-3-3.1-4.9c-0.7-1.9-1.1-4.1-1.1-6.5
		c0-2.5,0.3-4.7,0.9-6.6c0.6-2,1.5-3.6,2.6-5c1.1-1.4,2.6-2.4,4.2-3.2c1.7-0.7,3.6-1.1,5.7-1.1c1.2,0,2.3,0.1,3.2,0.3
		c0.9,0.2,1.9,0.6,2.8,1v-13.7l8.6-1.4L-142,516.6L-142,516.6z M-161.4,502.2c0,2.6,0.6,4.8,1.8,6.4c1.2,1.6,2.9,2.4,5.3,2.4
		c0.8,0,1.5,0,2.1-0.1c0.7-0.1,1.2-0.1,1.6-0.2v-15.6c-0.5-0.3-1.2-0.6-2.1-0.9c-0.9-0.2-1.7-0.3-2.6-0.3
		C-159.4,494-161.4,496.7-161.4,502.2"/>
	<path class="st0" d="M-125.8,478.6c0,1.6-0.5,2.8-1.5,3.7c-1,0.9-2.2,1.4-3.6,1.4c-1.4,0-2.6-0.4-3.6-1.4c-1-0.9-1.5-2.1-1.5-3.7
		c0-1.6,0.5-2.8,1.5-3.7c1-0.9,2.2-1.4,3.6-1.4c1.4,0,2.6,0.5,3.6,1.4C-126.3,475.8-125.8,477-125.8,478.6 M-126.6,517.6h-8.6v-30.2
		h8.6V517.6z"/>
	<path class="st0" d="M-93.6,513.8c0,4.9-1.3,8.6-3.8,11c-2.5,2.4-6.4,3.6-11.6,3.6c-1.8,0-3.7-0.2-5.5-0.5
		c-1.8-0.3-3.5-0.8-5.1-1.3l1.5-7.2c1.3,0.5,2.7,1,4.2,1.3c1.5,0.3,3.2,0.5,5,0.5c2.5,0,4.2-0.5,5.2-1.6c1-1.1,1.5-2.5,1.5-4.1v-1.1
		c-0.9,0.4-1.9,0.7-2.8,0.9c-1,0.2-2,0.3-3.2,0.3c-4.2,0-7.4-1.2-9.6-3.7c-2.2-2.5-3.3-5.9-3.3-10.4c0-2.2,0.3-4.2,1-6.1
		c0.7-1.8,1.7-3.4,3-4.7c1.3-1.3,2.9-2.3,4.9-3c1.9-0.7,4.1-1.1,6.5-1.1c1,0,2.1,0,3.2,0.1c1.1,0.1,2.2,0.2,3.2,0.4
		c1.1,0.2,2.1,0.3,3.1,0.5c1,0.2,1.8,0.4,2.6,0.7L-93.6,513.8L-93.6,513.8z M-112.4,501.5c0,4.8,1.9,7.2,5.8,7.2
		c0.9,0,1.7-0.1,2.5-0.3s1.4-0.5,2-0.8v-13.7c-0.4-0.1-0.9-0.1-1.5-0.2c-0.6-0.1-1.2-0.1-2-0.1c-2.3,0-3.9,0.7-5.1,2.2
		C-111.8,497.3-112.4,499.2-112.4,501.5"/>
</g>
</svg>
